<?xml version="1.0" encoding="UTF-8"?>
<svg xmlns="http://www.w3.org/2000/svg" xmlns:xlink="http://www.w3.org/1999/xlink" width="50pt" height="61pt" viewBox="0 0 50 61" version="1.1">
<g id="surface1">
<path style=" stroke:none;fill-rule:nonzero;fill:rgb(92.156863%,68.235294%,15.686275%);fill-opacity:1;" d="M 47.703125 39.914062 L 24.039062 23.511719 L 1.839844 38.8125 L 3.324219 40.636719 L 24.039062 26.414062 L 47.703125 42.628906 Z M 47.703125 39.914062 "/>
<path style=" stroke:none;fill-rule:nonzero;fill:rgb(92.156863%,68.235294%,15.686275%);fill-opacity:1;" d="M 47.703125 34.066406 L 24.039062 17.851562 L 1.839844 33.15625 L 3.324219 34.980469 L 24.039062 20.589844 L 47.703125 36.988281 Z M 47.703125 34.066406 "/>
<path style=" stroke:none;fill-rule:nonzero;fill:rgb(5.882353%,13.72549%,27.058824%);fill-opacity:1;" d="M 24.039062 29.152344 L 5.914062 41.550781 C 5.183594 39.914062 4.996094 38.8125 4.996094 35.890625 L 4.996094 27.886719 L 24.039062 14.949219 L 47.703125 31.347656 L 47.703125 25.691406 L 24.039062 9.289062 L 0.375 25.691406 L 0.375 37.363281 C 0.375 42.277344 2.589844 46.09375 4.621094 48.289062 L 24.039062 34.8125 L 39.570312 45.550781 L 24.039062 56.3125 L 12.75 48.476562 L 8.695312 51.378906 L 24.039062 61.953125 L 47.703125 45.550781 Z M 24.039062 29.152344 "/>
<path style=" stroke:none;fill-rule:nonzero;fill:rgb(5.882353%,13.72549%,27.058824%);fill-opacity:1;" d="M 0.375 0 L 0.375 19.863281 L 5.183594 16.585938 L 5.183594 4.5625 L 42.894531 4.5625 L 42.894531 16.585938 L 47.703125 19.863281 L 47.703125 0 Z M 0.375 0 "/>
</g>
</svg>
